<svg width="16" height="16" viewBox="0 0 16 16" fill="none" xmlns="http://www.w3.org/2000/svg">
<path d="M8.00033 1.33398C6.15933 1.33398 4.66699 2.82632 4.66699 4.66732C4.66699 6.50832 6.15933 8.00065 8.00033 8.00065C9.84133 8.00065 11.3337 6.50832 11.3337 4.66732C11.3337 2.82632 9.84133 1.33398 8.00033 1.33398ZM4.08366 9.33398C3.70799 9.33398 3.34771 9.48319 3.08204 9.7488C2.81638 10.0144 2.66708 10.3747 2.66699 10.7503V11.0007C2.66699 12.2523 3.31433 13.1897 4.30699 13.794C5.28366 14.3883 6.59566 14.6673 8.00033 14.6673C9.40499 14.6673 10.717 14.3883 11.6937 13.794C12.6863 13.1897 13.3337 12.2523 13.3337 11.0007V10.7503C13.3336 10.3747 13.1843 10.0144 12.9186 9.7488C12.6529 9.48319 12.2927 9.33398 11.917 9.33398H4.08366Z" fill="#1F1F1F"/>
</svg>
